# xmcd
#
# Track frame offsets:
#	150
#	32440
#	52929
#	72962
#	99973
#	111648
#	130133
#	164914
#	189694
#	194254
#	224142
#	246491
#	265552
#	289332
#	303497
#	321888
#	338996
#
# Disc length: 4750 seconds
#
# Revision: 2
# Processed by: cddbd v1.5.2PL0 Copyright (c) Steve Scherf et al.
# Submitted via: audiograbber 1.83.01
#
DISCID=10128c11
DTITLE=Rüdiger Oppermann - Wake Up - Best Of Rüdiger Oppermann [Zounds 24 Karat
DTITLE=Gold-CD]
DYEAR=2006
DGENRE=Instrumental
TTITLE0=Cool Harmonics
TTITLE1=Fragile Balance
TTITLE2=Double Tarantella
TTITLE3=Butterfly Metamorphosis
TTITLE4=Same Same But Different
TTITLE5=Blütenzauber
TTITLE6=Riding A Horse With 5 Legs
TTITLE7=Wide Horizon
TTITLE8=Wake Up
TTITLE9=Afghan Caravane
TTITLE10=Festine Lente (Eile mit Weile)
TTITLE11=Im Rosengarten
TTITLE12=Casa Bulag
TTITLE13=Tsunami - Die Große Welle
TTITLE14=Breathing With Harp
TTITLE15=Morgenflug
TTITLE16=Fast Finger Dance
EXTD=
EXTT0=
EXTT1=
EXTT2=
EXTT3=
EXTT4=
EXTT5=
EXTT6=
EXTT7=
EXTT8=
EXTT9=
EXTT10=
EXTT11=
EXTT12=
EXTT13=
EXTT14=
EXTT15=
EXTT16=
PLAYORDER=
